<?xml version="1.0" encoding="utf-8"?>
<!-- Generator: Adobe Illustrator 20.1.0, SVG Export Plug-In . SVG Version: 6.00 Build 0)  -->
<svg version="1.1" id="Layer_1" xmlns="http://www.w3.org/2000/svg" xmlns:xlink="http://www.w3.org/1999/xlink" x="0px" y="0px"
	 width="250px" height="44px" viewBox="0 0 250 44" style="enable-background:new 0 0 250 44;" xml:space="preserve">
<style type="text/css">
	.st0{fill:#414042;}
</style>
<g>
	<path class="st0" d="M0,41.1V2.7h9.7v15.2h20.8V2.7h10.3v38.4H30.6V24.3H9.7v16.9L0,41.1L0,41.1z"/>
	<path class="st0" d="M58.9,41.1h-9.7V2.7h9.7V41.1z"/>
	<path class="st0" d="M62.6,2.7h41.6v6.4H88.7v32.1H78.6V9.1h-16V2.7z"/>
	<path class="st0" d="M95.6,41.1l17.8-38.4H126l18,38.4h-11.1l-3.5-8.1h-19.1l-3.2,8.1H95.6z M127.1,26.6l-7.2-17.3l-7.4,17.3H127.1
		z"/>
	<path class="st0" d="M191.1,41.1V2.7h10.1v15.2H222V2.7h9.8v38.4h-9.7V24.2h-20.9v16.9H191.1z"/>
	<path class="st0" d="M250,41.1h-9.7V2.7h9.7V41.1z"/>
	<path class="st0" d="M175,15.6c0.1-4-2.4-7.8-10.4-7.9c-10.5,0-11.4,9.2-11.4,14.2c-0.1,10.7,4.5,13.9,12,14.1
		c7.4,0.1,9.9-4.5,9.8-8.6h10.8c-0.5,9.6-7,14.4-20.7,14.6c-16.3,0.1-23.3-8.8-23.3-20s6.8-20.4,22.8-20.5
		c11.3,0,20.2,4.5,20.7,14.1C185.3,15.6,175,15.6,175,15.6z"/>
</g>
</svg>
