<?xml version="1.0" encoding="utf-8"?>
<!-- Generator: Adobe Illustrator 20.0.0, SVG Export Plug-In . SVG Version: 6.00 Build 0)  -->
<svg version="1.1" id="Layer_1" xmlns="http://www.w3.org/2000/svg" xmlns:xlink="http://www.w3.org/1999/xlink" x="0px" y="0px"
	 width="1280px" height="127px" viewBox="0 0 1280 127" style="enable-background:new 0 0 1280 127;" xml:space="preserve">
<style type="text/css">
	.st0{opacity:0.3;fill:#004777;enable-background:new    ;}
	.st1{opacity:0.85;fill:#004777;enable-background:new    ;}
</style>
<path class="st0" d="M0,127V53.8C11.2,52,39.4,42.4,39.4,42.4l30.3,8.8L94.2,55l35.7-7.5l30.1-9.2l27.6-19.9l28.4-1L248.6,61
	l22.9,6.1l45-11.8L339.1,41l24.2,8.7l24.8-21.2l34.8,8.4l41.1-8.4l18,8.4l17.8,8l17.8-11.5l21.4,7.2l15.2-13.5l21.4-0.7L602.1,43
	l39.7,6l43.3-4.5l53.5,2l22.8-7l21.8-9.3L801,27l18.1,7.5l23,1.8l14.3-5.3l20.5,17.8l19.8,3.7l36.5-18l16.1,7.2l4.5-12.2l13.4,2.5
	l39.3-6l18.7-9l12.9-17l25.5,10.9l16.1,7.4l25-12.1l46.6,17.9l20.8-5.8l21,4.8l24.5,27.8l8.4-0.7l27.2-7.2l26.8-2.9V127"/>
<path class="st1" d="M1252.9,64.4l-28.7,2.8l-29.6-8.5l-24.2-20.5l-15.2-2.3L1110.1,50l-40.7-21.5l-26.5,7.3l-5.4,11.1l-29.9,18.2
	l-16.4,2.8l-23.1,1.3L955,57.9L933.8,55l-41.2,11.6h-17.9L850,49l-30.7,2.7l-20.1-14.4L778,50l-16.2,3.1l-24.4,15.3h-50.5l-45.1,9.8
	l-39.6-21.7L576,60.3l-12,7.6l0,0l-22.2-2.5l-24.1-12.1l-17,6.6L482,58.1l-18.2-13.5l-41.1,24l-34.9-8.5l-24.5,12.7l-20.8-5
	l-21.1,9.9l-51.8,2.1l-23.8-11l-30.4-32.7l-27.8,3.3l-25.7,13.8l-32,18.3l-38.3,3.9l-22.1-6.8L42.5,58L0,61.2c0,0,0,64.1,0,65.8
	h1280c0-2.5,0-56.9,0-56.9L1252.9,64.4z"/>
</svg>
